<svg width="32" height="32" viewBox="0 0 32 32" fill="none" xmlns="http://www.w3.org/2000/svg">
<path d="M21.3333 2.66663L18.2667 5.73329C17.5338 6.48101 17.1232 7.48628 17.1232 8.53329C17.1232 9.5803 17.5338 10.5856 18.2667 11.3333L20.6667 13.7333C21.4144 14.4662 22.4196 14.8767 23.4667 14.8767C24.5137 14.8767 25.5189 14.4662 26.2667 13.7333L29.3333 10.6666" stroke="white" stroke-width="2.66667" stroke-linecap="round" stroke-linejoin="round"/>
<path d="M20 20L4.39999 4.40002C3.86784 4.92143 3.44507 5.54378 3.15645 6.23063C2.86784 6.91747 2.71918 7.655 2.71918 8.40002C2.71918 9.14505 2.86784 9.88258 3.15645 10.5694C3.44507 11.2563 3.86784 11.8786 4.39999 12.4L14.1333 22.1334C15.0667 23.0667 16.8 23.0667 17.8667 22.1334L20 20ZM20 20L29.3333 29.3334" stroke="white" stroke-width="2.66667" stroke-linecap="round" stroke-linejoin="round"/>
<path d="M2.79999 29.0666L11.3333 20.6666" stroke="white" stroke-width="2.66667" stroke-linecap="round" stroke-linejoin="round"/>
<path d="M25.3333 6.66663L16 16" stroke="white" stroke-width="2.66667" stroke-linecap="round" stroke-linejoin="round"/>
</svg>
